<svg width="10" height="8" viewBox="0 0 10 8" fill="none" xmlns="http://www.w3.org/2000/svg">
<path d="M2.61068 1V8H1.89068V1.64H0.240679V1H2.61068ZM9.06396 7.36V8H4.15396V7.49L7.06396 4.64C7.43063 4.28 7.67729 3.97 7.80396 3.71C7.93729 3.44333 8.00396 3.17667 8.00396 2.91C8.00396 2.49667 7.86063 2.17667 7.57396 1.95C7.29396 1.71667 6.89063 1.6 6.36396 1.6C5.54396 1.6 4.90729 1.86 4.45396 2.38L3.94396 1.94C4.21729 1.62 4.56396 1.37333 4.98396 1.2C5.41063 1.02667 5.89063 0.94 6.42396 0.94C7.13729 0.94 7.70063 1.11 8.11396 1.45C8.53396 1.78333 8.74396 2.24333 8.74396 2.83C8.74396 3.19 8.66396 3.53667 8.50396 3.87C8.34396 4.20333 8.04063 4.58667 7.59396 5.02L5.21396 7.36H9.06396Z" fill="#BC9CFF"/>
</svg>
